<?xml version="1.0"?>
<svg xmlns="http://www.w3.org/2000/svg" xmlns:xlink="http://www.w3.org/1999/xlink" xmlns:svgjs="http://svgjs.com/svgjs" version="1.1" width="512" height="512" x="0" y="0" viewBox="0 0 128 128" style="enable-background:new 0 0 512 512" xml:space="preserve" class=""><g><linearGradient xmlns="http://www.w3.org/2000/svg" id="linear-gradient" gradientUnits="userSpaceOnUse" x1="111.021" x2="16.98" y1="111.753" y2="17.712"><stop stop-opacity="1" stop-color="#5541eb" offset="0"/><stop stop-opacity="1" stop-color="#ff4b9b" offset="1"/></linearGradient><path xmlns="http://www.w3.org/2000/svg" d="m117 24.416h-8.731a82.054 82.054 0 0 0 -20.969-3.187 1.75 1.75 0 0 0 -.09 3.5 82 82 0 0 1 19.043 2.747v67.624a97.913 97.913 0 0 0 -40.5-.032v-67.611a60.8 60.8 0 0 1 6.771-1.645 1.75 1.75 0 0 0 -.629-3.443 64.06 64.06 0 0 0 -7.895 1.966c-22.1-7.035-43.634-.135-44.546.165a1.75 1.75 0 0 0 -1.2 1.663v71.137a1.75 1.75 0 0 0 1.746 1.752 1.73 1.73 0 0 0 .414-.05 95.342 95.342 0 0 1 41.836-.331v2.877h-49.5v-75.382a1.75 1.75 0 1 0 -3.5 0v77.134a1.75 1.75 0 0 0 1.75 1.75h53a1.75 1.75 0 0 0 1.75-1.75v-4.63a95.154 95.154 0 0 1 41.836.33 1.75 1.75 0 0 0 2.164-1.7v-69.384h5.5v73.632h-43.25a1.75 1.75 0 0 0 0 3.5h45a1.75 1.75 0 0 0 1.75-1.75v-77.132a1.75 1.75 0 0 0 -1.75-1.75zm-95.25 70.684v-67.623c4.725-1.3 22.593-5.478 40.5-.029v67.624a97.936 97.936 0 0 0 -40.5.028zm55.69-71.779a1.75 1.75 0 0 1 1.609-1.88l.709-.052a1.75 1.75 0 1 1 .242 3.49l-.68.05c-.046 0-.092.005-.138.005a1.75 1.75 0 0 1 -1.742-1.613zm-19.777 18.741a1.749 1.749 0 0 1 -2.209 1.116 42.229 42.229 0 0 0 -14.884-1.92 1.75 1.75 0 1 1 -.137-3.5 45.731 45.731 0 0 1 16.114 2.092 1.75 1.75 0 0 1 1.116 2.212zm-31.325 0a1.749 1.749 0 0 1 1.116-2.208 41.741 41.741 0 0 1 4.957-1.192 1.75 1.75 0 0 1 .639 3.441 39.116 39.116 0 0 0 -4.5 1.077 1.749 1.749 0 0 1 -2.207-1.118zm31.325 12.738a1.749 1.749 0 0 1 -2.209 1.116c-13.3-4.373-26.772-.044-26.907 0a1.75 1.75 0 0 1 -1.093-3.325c.593-.2 14.712-4.728 29.093 0a1.75 1.75 0 0 1 1.116 2.209zm0 12.741a1.749 1.749 0 0 1 -2.209 1.116c-13.3-4.373-26.772-.044-26.907 0a1.75 1.75 0 0 1 -1.093-3.325c.593-.2 14.712-4.728 29.093 0a1.75 1.75 0 0 1 1.116 2.211zm0 12.741a1.749 1.749 0 0 1 -2.209 1.118c-13.3-4.373-26.772-.044-26.907 0a1.75 1.75 0 0 1 -1.093-3.325c.593-.2 14.712-4.728 29.093 0a1.75 1.75 0 0 1 1.116 2.209zm44-38.224a1.752 1.752 0 0 1 -2.207 1.118c-.135-.044-13.647-4.359-26.908 0a1.75 1.75 0 0 1 -1.094-3.325c14.384-4.727 28.5-.195 29.094 0a1.75 1.75 0 0 1 1.114 2.21zm0 12.741a1.752 1.752 0 0 1 -2.207 1.118c-.135-.044-13.647-4.36-26.908 0a1.75 1.75 0 0 1 -1.094-3.325c14.384-4.727 28.5-.2 29.094 0a1.75 1.75 0 0 1 1.114 2.208zm-31.325 12.744a1.75 1.75 0 0 1 1.115-2.209 46.063 46.063 0 0 1 16.76-2.062 1.75 1.75 0 1 1 -.178 3.5 42.562 42.562 0 0 0 -15.488 1.888 1.749 1.749 0 0 1 -2.209-1.116zm31.324 0a1.749 1.749 0 0 1 -2.207 1.118 36.573 36.573 0 0 0 -3.706-.922 1.75 1.75 0 0 1 .693-3.431 39.438 39.438 0 0 1 4.1 1.027 1.75 1.75 0 0 1 1.12 2.207zm-30.209 10.532c14.384-4.727 28.5-.2 29.094 0a1.75 1.75 0 0 1 -1.092 3.325c-.135-.044-13.647-4.36-26.908 0a1.75 1.75 0 0 1 -1.094-3.325z" fill="url(#linear-gradient)" data-original="url(#linear-gradient)" style="" class=""/></g></svg>
